<?xml version="1.0" encoding="utf-8"?>
<!-- Generator: Adobe Illustrator 16.0.0, SVG Export Plug-In . SVG Version: 6.00 Build 0)  -->
<!DOCTYPE svg PUBLIC "-//W3C//DTD SVG 1.1//EN" "http://www.w3.org/Graphics/SVG/1.1/DTD/svg11.dtd">
<svg version="1.1" id="Layer_1" xmlns="http://www.w3.org/2000/svg" xmlns:xlink="http://www.w3.org/1999/xlink" x="0px" y="0px"
	 width="512px" height="512px" viewBox="0 0 512 512" enable-background="new 0 0 512 512" xml:space="preserve">
<path d="M319.953,224c0,23.625-12.938,44.031-32,55.125V512h-64V279.125c-19.063-11.094-32-31.5-32-55.125c0-35.344,28.656-64,64-64
	S319.953,188.656,319.953,224z M255.953,80c-79.406,0-144,64.594-144,144c0,33.938,12.5,64.563,32.25,89.125l22.625-22.625
	c-14-18.625-22.875-41.375-22.875-66.5c0-61.875,50.188-112,112-112c61.844,0,112,50.125,112,112
	c0,25.125-8.844,47.875-22.906,66.469l22.656,22.656c19.75-24.594,32.25-55.188,32.25-89.125C399.953,144.594,335.359,80,255.953,80
	z M255.953,0c-123.5,0-224,100.5-224,224c0,56,20.844,107.125,54.969,146.406l22.719-22.719
	C81.297,314.281,63.953,271.25,63.953,224c0-106.063,86-192,192-192s192,85.938,192,192c0,47.25-17.375,90.25-45.719,123.656
	l22.75,22.75c34.125-39.313,54.969-90.438,54.969-146.406C479.953,100.5,379.453,0,255.953,0z"/>
</svg>
